<svg xmlns="http://www.w3.org/2000/svg" xmlns:xlink="http://www.w3.org/1999/xlink" width="139" height="136"><defs><circle id="A" cx="67.5" cy="67.5" r="67.5"/></defs><g transform="translate(.317)" fill="none" fill-rule="evenodd"><g transform="translate(.683)"><mask id="B" fill="#fff"><use xlink:href="#A"/></mask><use fill="#f5f5f5" xlink:href="#A"/><g mask="url(#B)"><g transform="translate(20 17)"><circle stroke="#18263c" stroke-width=".6" fill="#fff" cx="28" cy="28" r="27.7"/></g></g><g mask="url(#B)"><g transform="matrix(-1 0 0 1 128.071489 25)"><g stroke="#18263c"><g fill="#fff"><path d="M1.362 13.833c5.522 2.058 11.58 9.365 18.174 21.92 9.891 18.833 40.529 7.03 40.529 1.722 0-3.523-.184-3.038.834-4.551.233-.346 2.532-2.687 2.941-2.792.119-.031 1.715-1.726 2.818-1.799 2.004-.133 3.776 3.005 4.271 4.756.706 2.497-.908 4.923-4.842 7.278L60.9 48.233c-9.668 13.461-41.024 21.034-52.627.273C-3.98 26.581-.225 22.904 19.537 37.475" stroke-width=".6" transform="matrix(0 -1 1 0 -1.434389 73.765153)"/><g stroke-width=".4"><path d="M19.647 28l-2.575 12.42 15 3.58-3.333-12.938z"/><path d="M19.071 28.784c8.838 3.542 14.809 4.852 17.915 3.931 4.658-1.381 6.934-15.301 5.796-17.904s-16.763-8.77-19.502-1.082c-1.826 5.126-3.229 10.144-4.209 15.054z"/></g></g></g><path d="M30.33 18.066c2.01-1.302 2.962-.283 2.856 3.057h2.072c.161-4.044 2.703-6.066 7.627-6.066 7.386 0 3.55-14.169-.468-14.905-1.659-.304-1.328-.136-.993.339.476.676.984 1.012-1.206 1.012-3.73 0-14.096.057-21.337 3.358-4.827 2.201-5.068 9.381-.722 21.542L25.748 28l4.582-4.049c-2.01-2.622-2.01-4.584 0-5.885z" fill="#18263c"/><g stroke="#18263c" stroke-width=".4" fill="#d6dae1"><path d="M35.405 38.742c-.926-1.548.078-2.065 3.014-1.548 4.403.774 18.653 15.05 18.653 18.731S49.179 70 47.625 70c-1.036 0-5.11-10.419-12.221-31.258z"/><path d="M14.125 39.051c7.575-3.004 13.07 3.67 19.772-1.718s32.422 55.919 26.858 60.816S17.566 114.666 6.894 110c-7.115-3.11-8.722-24.379-4.822-63.805 5.286-3.745 9.304-6.126 12.053-7.144z"/></g></g></g></g><g stroke="#18263c"><g transform="matrix(-1 0 0 1 138.077124 70.430607)"><path d="M13.376 5.626c6.151 1.669 10.365 9.983 12.641 24.943.716 4.704.01 8.977 5.429 14.269 3.613 3.528 19.929 7.491 48.949 11.888 6.513 1.438 8.71 2.816 6.591 4.136-2.881 1.794 0 3.707-6.591 3.707-5.575 0-5.594-2.69-7.288-2.493C22.614 67.958 3.819 55.57 1.574 28.915.078 11.145 4.012 3.382 13.376 5.626z" stroke-width=".6" fill="#fff"/><path d="M1.228 30.569h24.789c5.29-20 1.752-30-10.613-30s-17.09 10-14.176 30z" stroke-width=".4" fill="#d6dae1"/></g><path stroke-width=".4" fill="#e84236" d="M56.116 56.293l-7.993-7.553-7.48 7.993-3.96-3.74L44.163 45l-7.04-6.673 3.74-3.96 7.04 6.673L54.576 34l3.96 3.74-6.6 7.04 7.92 7.553z"/></g></g></svg>
