<svg xmlns="http://www.w3.org/2000/svg" xmlns:xlink="http://www.w3.org/1999/xlink" width="155" height="135"><defs><circle id="A" cx="67.5" cy="67.5" r="67.5"/></defs><g transform="translate(.317)" fill="none" fill-rule="evenodd"><g transform="translate(15.683)"><mask id="B" fill="#fff"><use xlink:href="#A"/></mask><use fill="#f5f5f5" xlink:href="#A"/><path fill="#e1e1e1" mask="url(#B)" d="M122 94l-68.569 32-40.848-21.192L69 94z"/><g mask="url(#B)"><g transform="translate(69 12)"><path d="M26.5.25c7.249 0 13.811 2.938 18.562 7.688S52.75 19.251 52.75 26.5h0v55.25H.25V26.5c0-7.249 2.938-13.811 7.688-18.562S19.251.25 26.5.25z" stroke="#18263c" stroke-width=".5" fill="#fff"/><g transform="translate(14 18)"><g stroke="#18263c"><path d="M12.648 0c4.598 0 8.339 3.629 8.453 8.147l.003.212v7.633h-2.941V8.36c0-3.011-2.469-5.452-5.515-5.452-2.986 0-5.418 2.346-5.512 5.276l-.003.176v7.633H4.192V8.36C4.192 3.743 7.978 0 12.648 0z" stroke-width=".6" fill="#fff" fill-rule="nonzero"/><rect stroke-width=".4" fill="#126bfb" x=".2" y="14.012" width="24.6" height="19.955" rx="3"/></g><g fill="#fff"><circle cx="12.5" cy="20.833" r="2.5"/><path d="M11.667 20.833h1.667v5h-1.667z"/></g></g></g></g><g mask="url(#B)"><g transform="matrix(.987688 .156434 -.156434 .987688 9.535153 21.840636)"><path d="M43.454 42.087l-5.695.247.939-12.593 8.223-.865 2.095 13.23c-.097-.013-1.952-.019-5.563-.019z" stroke="#1a1a1a" stroke-width=".5" fill="#fff"/><path d="M37.845 7.202c-7.054 2.516-10.581 6.344-10.581 11.486 0 4.582 1.658 9.337 4.973 14.265a4 4 0 0 0 3.409 1.766l14.505-.328a4 4 0 0 0 3.528-2.293c4.846-10.281 4.778-17.429-.204-21.444-5.336-4.3-7.249-7.596-5.739-9.888l-9.892 6.435z" fill="#18263c"/><g stroke="#1a1a1a" stroke-width=".6"><path d="M67.614 59.455c13.891 6.433 23.69 2.688 29.395-11.235 1.597-3.897 2.18-15.945-7.874-20.71-5.625-2.666-17.723-4.342-36.293-5.028-3.724-1.303-6.016-1.303-6.876 0-1.29 1.954-1.82 5.028.957 5.028h7.246c22.771 3.081 29.805 8.392 21.101 15.932S64.015 56.32 67.614 59.455z" fill="#fff"/><path d="M25.1 39.443c2.054-.325 7.798-1.235 11.424-.023s9.158.787 13.357-.804c1.231-.466 20.489-7.898 30.42-1.237 6.098 12.831 7.002 21.757 2.709 26.776-.469.548-5.234.263-14.297-.857 8.825 16.731 14.237 35.118 16.236 55.162l-77.614-4.686c7.027-25.518 12.657-41.641 16.891-48.369.815-1.295-4.947 4.781-5.097 4.624L.554 55.478C4.912 46.69 13.095 41.345 25.1 39.443z" fill="#d6dae1"/></g></g></g></g><g fill="#fff"><path d="M18.107 77.742c-.441-.606-4.271 2.63-11.49 9.708-9.063 8.886-8.136 14.36-1.338 19.932 8.173 6.699 28.495 8.543 31.302 6.5.05-.036 6.005-2.901 4.009-6.793s-7.057-1.094-7.241-1.165c-2.599-1.012-13.358-1.983-6.719-8.221 2.417-2.271 4.08-3.213 5.667-4.563L18.107 77.742z" stroke="#1a1a1a" stroke-width=".6"/><path d="M36.072 43.159l-3.813-8-4.187 2.095zm-12 2.963l-5.008-2.963-.992 4z" stroke="#18263c" stroke-width=".4" stroke-linejoin="round"/></g><circle fill="#126bfb" fill-rule="nonzero" cx="151.283" cy="62.04" r="3"/></g></svg>
