<svg xmlns="http://www.w3.org/2000/svg" xmlns:xlink="http://www.w3.org/1999/xlink" width="133" height="133"><style><![CDATA[.B{fill:#fff}.C{stroke:#393939}.D{stroke-width:.8}.E{fill:#7e8b9f}.F{fill-rule:nonzero}.G{fill:#d6dae1}.H{fill-rule:evenodd}]]></style><defs><linearGradient x1="50%" y1="98.0277535%" x2="50%" y2="0%" id="A"><stop stop-color="#d6dae1" stop-opacity="0" offset="0%"/><stop stop-color="#d6dae1" offset="100%"/></linearGradient><path id="B" d="M35 29.981v.001a2.98 2.98 0 1 0 5.961 0v-.002a2.98 2.98 0 1 0-5.961 0v.001z"/><path id="C" d="M36.039 29.764h0c0 1.013.821 1.834 1.834 1.834s1.834-.821 1.834-1.834h0c0-1.013-.821-1.834-1.834-1.834s-1.834.821-1.834 1.834h0z"/></defs><g class="F"><path d="M.223 66.325v.003c0 36.448 29.549 65.996 66 65.996s66-29.547 66-65.996v-.009c0-36.448-29.549-65.996-66-65.996s-66 29.547-66 65.996v.006z" fill="#f5f5f5"/><path d="M11 66h0c0 30.376 24.624 55 55 55s55-24.624 55-55h0c0-30.376-24.624-55-55-55s-55 24.624-55 55h0z" fill="#dedede"/><path d="M110.736 125.389H21.711h0c-1.544 0-2.795-1.251-2.795-2.795V10.058h0c0-1.544 1.251-2.795 2.795-2.795h89.025 0c1.544 0 2.795 1.251 2.795 2.795v112.536h0c0 1.544-1.251 2.795-2.795 2.795h0z" stroke="#222" stroke-width=".6" class="B"/></g><g class="H"><path fill="#393939" d="M36.011 57.315h-1V79.42h1z"/><path d="M37.369 58.473H95.79v2H37.369zm0 5.93h34.737v2H37.369zm0 5.93H50v2H37.369zm0 5.929h3.158v2h-3.158z" fill="#126bfb"/></g><path fill="url(#A)" d="M37.65 29.44l14.143 9.673 14.141-9.673 14.143 3.727 14.273-7.453v19.454h-56.7z" transform="translate(.223 .324)" class="F"/><path d="M37.873 29.764l14.143 9.673 14.205-9.673 14.078 3.727 14.274-7.454" fill="none" class="C D H"/><g class="F"><path fill="#e8edeb" d="M57.907 14.92h16.628v2.562H57.907z"/><use xlink:href="#B" class="E"/><g class="B"><use xlink:href="#C"/><path d="M49.398 101.707h0a8.45 8.45 0 0 0-8.446-8.446 8.45 8.45 0 0 0-8.446 8.446 8.45 8.45 0 0 0 8.445 8.446v-8.446h8.446.001z" class="C D"/></g><path d="M49.91 102.772a7.9 7.9 0 0 1-7.895 7.895v-7.895h7.895 0z" class="G"/><path d="M72.194 95.734l-5.974 5.973v-8.446h0a8.45 8.45 0 0 0-8.443 8.449 8.45 8.45 0 0 0 8.449 8.443 8.45 8.45 0 0 0 8.443-8.449c-.001-2.239-.891-4.387-2.475-5.97h0z" class="B C D"/><path d="M71.545 94.938l-4.575 4.575V93.04h0c1.717 0 3.363.683 4.575 1.899h0z" class="G"/><path d="M83.05 101.707h0a8.45 8.45 0 0 0 8.445 8.446V93.261h0a8.45 8.45 0 0 0-8.446 8.446h.001z" class="B C D"/><path d="M100.942 101.709a8.45 8.45 0 0 1-8.45 8.441V93.259a8.45 8.45 0 0 1 8.45 8.45h0z" class="G"/><use xlink:href="#B" x="14.034" y="9.469" class="E"/><use xlink:href="#C" x="14.141" y="9.686" class="B"/><use xlink:href="#B" x="28.243" y="-0.217" fill="#126bfb"/><use xlink:href="#C" x="28.35" class="B"/><path d="M77.318 33.491h0a2.98 2.98 0 1 0 5.961 0h0a2.98 2.98 0 1 0-5.961 0h0z" class="E"/><path d="M80.299 35.325c1.013 0 1.834-.821 1.834-1.834s-.821-1.834-1.834-1.834-1.834.821-1.834 1.834.821 1.834 1.834 1.834z" class="B"/><use xlink:href="#B" x="56.593" y="-3.944" class="E"/><use xlink:href="#C" x="56.7" y="-3.727" class="B"/></g></svg>
