<svg xmlns="http://www.w3.org/2000/svg" xmlns:xlink="http://www.w3.org/1999/xlink" width="134" height="134"><defs><circle id="A" cx="67" cy="67" r="67"/></defs><g fill="none" fill-rule="evenodd"><mask id="B" fill="#fff"><use xlink:href="#A"/></mask><use fill="#f5f5f5" xlink:href="#A"/><g mask="url(#B)"><g transform="translate(.242 34.217)"><g stroke-width=".6"><path d="M64 51.267l3.627-12.872h8.621l3.492 12.872c-3.818 2.732-6.634 4.098-8.446 4.098S67.051 53.999 64 51.267z" stroke="#18263c" fill="#fff"/><g stroke="#182333"><path d="M41.678 43.876c8.668 0 16.109 1.923 22.323 5.769 6.125 3.05 11.372 2.851 15.74-.597 6.552-5.172 14.475-13.902 26.201-13.902 9.45 8.618 14.175 14.664 14.175 18.139 0 5.213-7.994 4.635-14.175 7.334 5.85 23.614 7.051 37.089 3.604 40.424l-71.337 1.631c-1.367-13.153-.049-24.878 3.956-35.174l-3.956 5.63L17 61.593c7.784-11.811 16.01-17.717 24.678-17.717z" fill="#d6dae1"/><g fill="#fff"><path d="M34.43 71.898c-4.708 15.838-6.463 25.141-5.264 27.908 1.798 4.151 13.59 15.573 15.763 18.345s9.068 5.344 7.905 10.26-35.963-4.694-41.218-10.499S-.158 93.032 12.993 63.82l21.437 8.078z" transform="matrix(.990268 .139173 -.139173 .990268 13.754304 -3.110718)"/><path d="M105.941 35.146c13.673-6.82 18.928-12.025 15.763-15.614s-16.216-4.872-39.153-3.85c-4.718 1.443-7.523 1.443-8.414 0-1.337-2.165-2.458-4.986 3.635-6.044s3.482 1.626 10.724-1.058 33.983-12.325 44.086-5.634 22.866 30.972-12.925 48.467l-13.716-16.269z"/></g><path d="M70.223 35.146c1.287 1.514 2.574 1.514 3.861 0" stroke-linecap="round"/></g></g><g transform="translate(56.352 8.581)"><path d="M9.68 1.619c3.642-1.951 7.556-2.138 11.741-.561a12.99 12.99 0 0 1 8.343 13.439l-.75 7.536h0-1.384L.97 21.428C-1.121 10.869.169 4.786 4.839 3.181c.773-.219 1.444-.112 2.015.322L9.68 1.619z" fill="#182333"/><path d="M4.744 7.896c-1.433.995-2.483 5.576-3.147 13.745 2.295 6.338 5.776 10.16 10.443 11.464 6.448 1.46 12.986-2.056 15.322-8.241.728-1.927 1.092-3.574 1.092-4.943 0-5.101-.22-10.607-2.046-11.584-1.786-.956-15.21-5.178-18.598-2.556-.074.057-.785.373-.848.437-2.971 2.97-.068.184-2.218 1.676z" stroke="#18263c" stroke-width=".6" fill="#fff"/><g fill="#182333"><path d="M7.648 4.963l2.995 2.69c5.532 4.127 14.734 6.165 18.608.66 1.511-2.146 2.618-8.204.689-6.099s-7.47-.865-9.63-.865c-4.673 0-8.893 1.204-12.662 3.613z"/><path d="M12.04 5.709C5.485 16.128 1.605 19.55.399 15.977c-.892-2.643.646-7.068 6.22-9.862 1.097-.55 2.904-.686 5.421-.406zM26.2 9.505l1.478 12.71 1.151-.182-1.151-13.232z"/><path d="M.538 11.185l-.375 4.809.722 5.792 1.603.247v-9.159z"/></g></g></g></g><g fill-rule="nonzero" stroke="#18263c" stroke-width=".6"><path d="M41.034 55.175c2.166 0 3.922 1.695 3.922 3.786s-1.756 3.787-3.922 3.787-3.922-1.695-3.922-3.787 1.756-3.786 3.922-3.786h0zm1.371-6.369c-.45-.046-.908-.069-1.371-.069-3.565-.006-6.975 1.417-9.426 3.934l-3.884-3.752c2.578-2.599 5.901-4.38 9.537-5.111l5.144 4.998zm-1.764-16.354h0c8.137-.015 15.936 3.162 21.632 8.812l-3.884 3.749h0c-3.646-3.637-8.383-6.057-13.533-6.913l-5.769-5.611a31.45 31.45 0 0 1 1.554-.038l-.001.001zm-12.414 2.571l4.198 4.083h0c-3.427 1.168-6.548 3.055-9.141 5.528l-3.882-3.749h0c2.561-2.447 5.548-4.432 8.824-5.861h.001zM40.641 21.09h0c11.254-.021 22.046 4.353 29.952 12.14l-3.884 3.749h0c-6.874-6.79-16.269-10.605-26.068-10.588a37.88 37.88 0 0 0-7.134.675l-4.52-4.393h0a43.38 43.38 0 0 1 11.654-1.583h-.001zM23.56 30.485c-3.156 1.619-6.051 3.679-8.593 6.113l-3.885-3.749a41.99 41.99 0 0 1 8.46-6.271l4.018 3.907z" fill="#fff"/><path d="M53.14 50.014l-3.281 3.262-27.963-27.805c1.493-.741 3.031-1.394 4.603-1.951L53.14 50.014z" fill="#e84236"/></g></g></svg>
