<svg xmlns="http://www.w3.org/2000/svg" xmlns:xlink="http://www.w3.org/1999/xlink" width="141" height="136"><style><![CDATA[.B{fill:#fff}.C{stroke:#18263c}.D{stroke-width:.6}.E{stroke-width:.4}.F{mask:url(#B)}]]></style><defs><circle id="A" cx="67.5" cy="67.5" r="67.5"/></defs><g transform="translate(.317)" fill="none" fill-rule="evenodd"><g transform="translate(.683)"><mask id="B" class="B"><use xlink:href="#A"/></mask><use fill="#f5f5f5" xlink:href="#A"/><g class="F"><g transform="translate(20 17)"><circle cx="28" cy="28" r="27.7" class="B C D"/><path stroke="#1a1a1a" fill="#3e8be9" d="M41.674 15.217l2.152 2.175-16.471 19.244-2.483 2.928-2.235-2.928-8.029-10.71 2.152-2.175 8.111 6.192 16.802-14.726z" class="E"/></g><g class="C"><g transform="translate(23 65)"><g class="B D"><path d="M10.7.3v8.775c0 1.436-.582 2.736-1.523 3.677S6.936 14.275 5.5 14.275s-2.736-.582-3.677-1.523S.3 10.511.3 9.075h0V.3h10.4z"/><path d="M10.7 3.875v5.2c0 1.436-.582 2.736-1.523 3.677S6.936 14.275 5.5 14.275s-2.736-.582-3.677-1.523S.3 10.511.3 9.075h0v-5.2h10.4z"/></g><path stroke-width="2" d="M5.5 14.118V19"/></g></g><g transform="matrix(-1 0 0 1 128.071489 25)"><g class="B C E"><path d="M19.647 28l-2.575 12.42 15 3.58-3.333-12.938z"/><path d="M19.071 28.784c8.838 3.542 14.809 4.852 17.915 3.931 4.658-1.381 6.934-15.301 5.796-17.904s-16.763-8.77-19.502-1.082c-1.826 5.126-3.229 10.144-4.209 15.054z"/></g><path d="M30.33 18.066c2.01-1.302 2.962-.283 2.856 3.057h2.072c.161-4.044 2.703-6.066 7.627-6.066 7.386 0 3.55-14.169-.468-14.905-1.659-.304-1.328-.136-.993.339.476.676.984 1.012-1.206 1.012-3.73 0-14.096.057-21.337 3.358-4.827 2.201-5.068 9.381-.722 21.542L25.748 28l4.582-4.049c-2.01-2.622-2.01-4.584 0-5.885z" fill="#18263c"/><g class="C"><path d="M38.071 41c5.522 2.058 11.58 9.365 18.174 21.92 9.891 18.833 40.529 7.03 40.529 1.722 0-3.523-.184-3.038.834-4.551.233-.346 2.532-2.687 2.941-2.792.119-.031 1.715-1.726 2.818-1.799 2.004-.133 3.776 3.005 4.271 4.756.706 2.497-.908 4.923-4.842 7.278L97.609 75.4c-9.668 13.461-42.935 21.361-54.537.6" class="B D"/><g fill="#d6dae1" class="E"><path d="M35.405 38.742c-.926-1.548.078-2.065 3.014-1.548 4.403.774 18.653 15.05 18.653 18.731S49.179 70 47.625 70c-1.036 0-5.11-10.419-12.221-31.258z"/><path d="M14.125 39.051c7.575-3.004 13.07 3.67 19.772-1.718s32.422 55.919 26.858 60.816S17.566 114.666 6.894 110c-7.115-3.11-8.722-24.379-4.822-63.805 5.286-3.745 9.304-6.126 12.053-7.144z"/></g></g></g></g></g><g transform="matrix(-1 0 0 1 139.077124 70.430607)" class="C"><path d="M13.376 5.626c6.151 1.669 10.365 9.983 12.641 24.943.716 4.704.01 8.977 5.429 14.269 3.613 3.528 19.929 7.491 48.949 11.888 6.513 1.438 8.71 2.816 6.591 4.136-2.881 1.794 0 3.707-6.591 3.707-5.575 0-5.594-2.69-7.288-2.493C22.614 67.958 3.819 55.57 1.574 28.915.078 11.145 4.012 3.382 13.376 5.626z" class="B D"/><path d="M1.228 30.569h24.789c5.29-20 1.752-30-10.613-30s-17.09 10-14.176 30z" fill="#d6dae1" class="E"/></g><g fill-rule="nonzero"><path d="M127.457 20.886c-.024-.012-.048-.023-.073-.048-.144-.114-.174-.296-.066-.411l6.498-6.86c.108-.115.309-.117.453-.003s.174.296.066.411l-6.498 6.86c-.092.098-.249.115-.38.051z" fill="#000"/><circle fill="#3e8be9" cx="23.033" cy="9.67" r="3"/><path d="M134.694 47.004c-.041 0-.081-.014-.117-.032l-6.357-3.887c-.108-.063-.14-.203-.077-.312l3.887-6.357c.068-.108.203-.14.312-.077l6.357 3.887c.05.032.086.081.104.14s.005.117-.027.172l-3.887 6.357c-.032.05-.081.086-.14.104-.018 0-.036.005-.054.005zm-6.045-4.19l5.968 3.652 3.652-5.973-5.973-3.652-3.648 5.973z" fill="#000"/></g></g></svg>
